<?xml version="1.0" encoding="UTF-8" standalone="no"?>
<!-- Generator: Adobe Illustrator 23.0.6, SVG Export Plug-In . SVG Version: 6.00 Build 0)  -->

<svg
   xmlns:dc="http://purl.org/dc/elements/1.1/"
   xmlns:cc="http://creativecommons.org/ns#"
   xmlns:rdf="http://www.w3.org/1999/02/22-rdf-syntax-ns#"
   xmlns:svg="http://www.w3.org/2000/svg"
   xmlns="http://www.w3.org/2000/svg"
   xmlns:xlink="http://www.w3.org/1999/xlink"
   xmlns:sodipodi="http://sodipodi.sourceforge.net/DTD/sodipodi-0.dtd"
   xmlns:inkscape="http://www.inkscape.org/namespaces/inkscape"
   version="1.1"
   id="Capa_1"
   x="0px"
   y="0px"
   viewBox="0 0 434.79999 434.79999"
   xml:space="preserve"
   sodipodi:docname="CD-26_0000024_iconos_terrestres_03.svg"
   width="434.79999"
   height="434.79999"
   inkscape:version="0.92.5 (2060ec1f9f, 2020-04-08)"><metadata
   id="metadata82"><rdf:RDF><cc:Work
       rdf:about=""><dc:format>image/svg+xml</dc:format><dc:type
         rdf:resource="http://purl.org/dc/dcmitype/StillImage" /><dc:title></dc:title></cc:Work></rdf:RDF></metadata><defs
   id="defs80" /><sodipodi:namedview
   pagecolor="#ffffff"
   bordercolor="#666666"
   borderopacity="1"
   objecttolerance="10"
   gridtolerance="10"
   guidetolerance="10"
   inkscape:pageopacity="0"
   inkscape:pageshadow="2"
   inkscape:window-width="640"
   inkscape:window-height="480"
   id="namedview78"
   showgrid="false"
   fit-margin-top="1"
   fit-margin-right="1"
   fit-margin-bottom="1"
   fit-margin-left="1"
   inkscape:zoom="0.49486266"
   inkscape:cx="219.45"
   inkscape:cy="196.55"
   inkscape:window-x="72"
   inkscape:window-y="27"
   inkscape:window-maximized="0"
   inkscape:current-layer="Capa_1" />
<style
   type="text/css"
   id="style2">
	.st0{clip-path:url(#SVGID_2_);}
	.st1{fill:url(#SVGID_3_);}
	.st2{fill:#84361E;}
	.st3{fill:#A0503A;}
	.st4{fill:#222127;}
	.st5{fill:#474347;}
	.st6{fill:#C45858;}
	.st7{fill:#E55582;}
	.st8{fill:#FFFFFF;}
	.st9{fill:#1C1C1C;}
	.st10{fill:none;stroke:#1C1C1C;stroke-miterlimit:10;}
	.st11{clip-path:url(#SVGID_5_);fill:#63391C;}
	.st12{clip-path:url(#SVGID_7_);fill:#939799;}
	.st13{clip-path:url(#SVGID_9_);fill:#939799;}
	.st14{clip-path:url(#SVGID_11_);fill:#787F82;}
	.st15{clip-path:url(#SVGID_13_);fill:#111111;}
	.st16{clip-path:url(#SVGID_15_);fill:#111111;}
	.st17{clip-path:url(#SVGID_17_);}
	.st18{fill:#C8C5C9;}
	.st19{clip-path:url(#SVGID_19_);}
	.st20{clip-path:url(#SVGID_21_);}
	.st21{clip-path:url(#SVGID_23_);}
	.st22{clip-path:url(#SVGID_25_);}
	.st23{clip-path:url(#SVGID_27_);}
	.st24{clip-path:url(#SVGID_29_);}
	.st25{clip-path:url(#SVGID_31_);}
	.st26{fill:#FFD15C;}
	.st27{clip-path:url(#SVGID_33_);}
	.st28{clip-path:url(#SVGID_35_);}
	.st29{clip-path:url(#SVGID_37_);}
	.st30{clip-path:url(#SVGID_39_);}
	.st31{clip-path:url(#SVGID_41_);}
	.st32{clip-path:url(#SVGID_43_);}
	.st33{clip-path:url(#SVGID_45_);fill:#939799;}
	.st34{clip-path:url(#SVGID_47_);fill:#939799;}
	.st35{clip-path:url(#SVGID_49_);fill:none;}
	.st36{clip-path:url(#SVGID_51_);fill:none;}
	.st37{opacity:0.3;clip-path:url(#SVGID_53_);fill:#656D78;enable-background:new    ;}
	.st38{opacity:0.3;clip-path:url(#SVGID_55_);fill:#656D78;enable-background:new    ;}
	.st39{clip-path:url(#SVGID_57_);fill:#895A3A;}
	.st40{clip-path:url(#SVGID_59_);fill:#895A3A;}
	.st41{clip-path:url(#SVGID_61_);fill:#895A3A;}
	.st42{clip-path:url(#SVGID_63_);fill:#895A3A;}
	.st43{clip-path:url(#SVGID_65_);fill:#895A3A;}
	.st44{clip-path:url(#SVGID_67_);}
	.st45{fill:url(#SVGID_68_);}
	.st46{fill:#3C6033;}
	.st47{fill:#537549;}
	.st48{fill:#DAE5EF;}
	.st49{fill:#65A844;}
	.st50{fill:#FF7058;}
	.st51{fill:#5C9340;}
	.st52{fill:#3F4347;}
	.st53{fill:#939799;}
	.st54{fill:#606060;}
	.st55{fill:none;}
	.st56{opacity:0.1;fill:#615653;enable-background:new    ;}
	.st57{fill:#7F594F;}
	.st58{fill:#EABDAC;}
	.st59{clip-path:url(#SVGID_70_);fill:#D87E6C;}
	.st60{fill:#99715E;}
	.st61{fill:#59413B;}
	.st62{fill:#9E503B;}
	.st63{opacity:0.2;clip-path:url(#SVGID_72_);fill:#9E503B;enable-background:new    ;}
	.st64{clip-path:url(#SVGID_74_);fill:#9E503B;}
	.st65{clip-path:url(#SVGID_76_);fill:#9E503B;}
	.st66{fill:#8C3D2A;}
	.st67{opacity:0.3;}
	.st68{fill:#E5E5E5;}
	.st69{opacity:0.15;fill:#FFFFFF;enable-background:new    ;}
	.st70{opacity:0.2;fill:#332929;enable-background:new    ;}
	.st71{opacity:0.2;fill:#4F433F;enable-background:new    ;}
	.st72{clip-path:url(#SVGID_78_);fill:#D87E6C;}
	.st73{fill:#4C362D;}
	.st74{clip-path:url(#SVGID_80_);fill:#1E669B;}
	.st75{clip-path:url(#SVGID_82_);}
	.st76{fill:#362F2B;}
	.st77{fill:#8F8076;}
	.st78{fill:none;stroke:#4F4A41;stroke-miterlimit:10;}
	.st79{fill:none;stroke:#725444;stroke-width:6;stroke-linecap:round;stroke-linejoin:round;stroke-miterlimit:10;}
	.st80{fill:#443F38;}
	.st81{fill:#686257;}
	.st82{fill:#4F4A41;}
	.st83{fill:none;stroke:#8C615B;stroke-width:8;stroke-linecap:round;stroke-linejoin:round;stroke-miterlimit:10;}
	.st84{fill:none;stroke:#8C615B;stroke-width:4;stroke-linecap:round;stroke-linejoin:round;stroke-miterlimit:10;}
	.st85{fill:#2C3135;}
	.st86{fill:#2A2E30;}
	.st87{fill:#5D554B;}
	.st88{fill:#0A0A0A;}
	.st89{fill:#70655A;}
	.st90{clip-path:url(#SVGID_84_);}
	.st91{fill:#527A1E;}
	.st92{fill:#41602C;}
	.st93{fill:#383430;}
	.st94{fill:#2B2A29;}
	.st95{clip-path:url(#SVGID_86_);}
	.st96{fill:url(#SVGID_87_);}
	.st97{fill:#4C4844;}
	.st98{fill:#B79279;}
	.st99{fill:#BF5477;}
	.st100{fill:#8C96B4;}
	.st101{fill:#73CCE0;}
	.st102{fill:#495565;}
	.st103{fill:#B3BDD0;}
	.st104{fill:#1A1A1C;}
	.st105{fill:#D1D3D4;}
	.st106{fill:#C95C36;}
	.st107{fill:#231F20;}
	.st108{clip-path:url(#SVGID_89_);}
	.st109{fill:url(#SVGID_90_);}
	.st110{fill:#E6E6E6;}
	.st111{fill:#FDFEFF;}
	.st112{clip-path:url(#SVGID_92_);}
	.st113{fill:#A37B2B;}
	.st114{fill:#4578AC;}
	.st115{fill:#3C6799;}
	.st116{fill:#1C1929;}
	.st117{fill:#2A7EC5;}
	.st118{fill:#2998D6;}
	.st119{fill:none;stroke:#0E4C68;stroke-width:3;stroke-miterlimit:10;}
	.st120{fill:#FFFFFF;stroke:#39C9EA;stroke-width:3;stroke-miterlimit:10;}
	.st121{fill:#171C1E;}
	.st122{fill:#8C8680;}
	.st123{fill:#1D6DA3;}
	.st124{fill:#725D57;}
	.st125{clip-path:url(#SVGID_94_);}
	.st126{fill:url(#SVGID_95_);}
	.st127{fill:#57A02B;}
	.st128{fill:#315E1C;}
	.st129{fill:#E8E8E8;}
	.st130{clip-path:url(#SVGID_97_);}
	.st131{fill:#D19428;}
	.st132{fill:#F9D076;}
	.st133{fill:#AF8754;}
	.st134{fill:none;stroke:#CEBDAE;stroke-width:2;stroke-miterlimit:10;}
	.st135{fill:none;stroke:#D1AE8F;stroke-width:2;stroke-miterlimit:10;}
	.st136{fill:#DAB080;}
	.st137{fill:#4F371D;}
	.st138{fill:#F2CE36;}
	.st139{fill:#1E1B09;}
	.st140{fill:#CD8B3F;}
	.st141{fill:#080A05;}
	.st142{fill:#F6E8C3;}
	.st143{fill:#EAAB2D;}
	.st144{fill:#FAE9BB;}
	.st145{display:none;}
	.st146{display:inline;fill:#D19428;}
	.st147{display:inline;fill:#F9D076;}
	.st148{display:inline;fill:#AF8754;}
	.st149{display:inline;fill:#DAB080;}
	.st150{display:inline;fill:#4F371D;}
	.st151{display:inline;fill:#F2CE36;}
	.st152{display:inline;fill:#1E1B09;}
	.st153{display:inline;fill:#CD8B3F;}
	.st154{display:inline;fill:#080A05;}
	.st155{display:inline;fill:#F6E8C3;}
	.st156{display:inline;fill:#EAAB2D;}
	.st157{display:inline;fill:#FAE9BB;}
	.st158{clip-path:url(#SVGID_99_);}
	.st159{fill:url(#SVGID_100_);}
	.st160{fill:#967D6F;}
	.st161{fill:#3A2110;}
	.st162{fill:#AD770B;}
	.st163{fill:#8C6B4A;}
	.st164{fill:#E5E0DC;}
	.st165{fill:#CEC5BD;}
	.st166{fill:#D39711;}
	.st167{fill:#845C0B;}
	.st168{fill:#6B4231;}
	.st169{fill:#B59C8C;}
	.st170{fill:none;stroke:#593C09;stroke-miterlimit:10;}
	.st171{fill:#A1BAC9;}
	.st172{fill:#C8E1ED;}
	.st173{fill:#CCE2ED;}
	.st174{fill:#EDF2F4;}
</style>
<g
   id="g75"
   transform="translate(-10.5,-0.2)">
	<g
   id="g33">
		<g
   id="g31">
			<defs
   id="defs5">
				<path
   id="SVGID_88_"
   d="M 227.9,1.2 C 108.4,1.2 11.5,98.1 11.5,217.6 c 0,26.3 4.7,51.5 13.3,74.8 v 0 C 55.3,375.1 134.7,434 227.9,434 321.1,434 400.6,375.1 431,292.4 v 0 c 8.6,-23.3 13.3,-48.5 13.3,-74.8 C 444.3,98.1 347.4,1.2 227.9,1.2 Z"
   inkscape:connector-curvature="0" />
			</defs>
			<clipPath
   id="SVGID_2_">
				<use
   xlink:href="#SVGID_88_"
   style="overflow:visible"
   id="use7"
   x="0"
   y="0"
   width="100%"
   height="100%" />
			</clipPath>
			<g
   class="st0"
   clip-path="url(#SVGID_2_)"
   id="g29">
				
					<linearGradient
   id="SVGID_3_"
   gradientUnits="userSpaceOnUse"
   x1="222.59801"
   y1="-3156.3464"
   x2="222.59801"
   y2="-2704.4565"
   gradientTransform="matrix(1,0,0,-1,0,-2704.4565)">
					<stop
   offset="0.6927"
   style="stop-color:#DAE5EF"
   id="stop10" />
					<stop
   offset="1"
   style="stop-color:#6DAFDF"
   id="stop12" />
				</linearGradient>
				<rect
   class="st1"
   width="445.20001"
   height="451.89999"
   id="rect15"
   x="0"
   y="0"
   style="fill:url(#SVGID_3_)" />
				<rect
   x="216.5"
   y="205.39999"
   class="st110"
   width="7.1999998"
   height="17.1"
   id="rect17"
   style="fill:#e6e6e6" />
				<rect
   x="238.2"
   y="205.39999"
   class="st110"
   width="7.1999998"
   height="17.1"
   id="rect19"
   style="fill:#e6e6e6" />
				<rect
   x="259.89999"
   y="205.39999"
   class="st110"
   width="7.1999998"
   height="17.1"
   id="rect21"
   style="fill:#e6e6e6" />
				<rect
   x="281.70001"
   y="205.39999"
   class="st110"
   width="7.1999998"
   height="17.1"
   id="rect23"
   style="fill:#e6e6e6" />
				<path
   class="st111"
   d="m 36,93.8 h 19 c 0,0.5 -0.1,1 -0.1,1.6 0,10.8 6.8,19.5 15.2,19.5 h 91.3 c 8.4,0 15.2,-8.7 15.2,-19.5 0,-10.8 -6.8,-19.5 -15.2,-19.5 H 112 c 0,-0.5 0.1,-1 0.1,-1.6 0,-10.8 -6.8,-19.5 -15.2,-19.5 H 36 c -8.4,0 -15.2,8.7 -15.2,19.5 0,10.8 6.8,19.5 15.2,19.5 z"
   id="path25"
   inkscape:connector-curvature="0"
   style="fill:#fdfeff" />
				<path
   class="st48"
   d="m 356,38.3 h -60.9 c -8.4,0 -15.2,-6.8 -15.2,-15.2 0,-8.4 6.8,-15.2 15.2,-15.2 H 356 c 8.4,0 15.2,6.8 15.2,15.2 0,8.3 -6.8,15.2 -15.2,15.2 z"
   id="path27"
   inkscape:connector-curvature="0"
   style="fill:#dae5ef" />
			</g>
		</g>
	</g>
	<g
   id="g73">
		<g
   id="g71">
			<defs
   id="defs36">
				<path
   id="SVGID_91_"
   d="M 227.9,1.2 C 108.4,1.2 11.5,98.1 11.5,217.6 c 0,26.3 4.7,51.5 13.3,74.8 v 0 C 55.3,375.1 134.7,434 227.9,434 321.1,434 400.6,375.1 431,292.4 v 0 c 8.6,-23.3 13.3,-48.5 13.3,-74.8 C 444.3,98.1 347.4,1.2 227.9,1.2 Z"
   inkscape:connector-curvature="0" />
			</defs>
			<clipPath
   id="SVGID_5_">
				<use
   xlink:href="#SVGID_91_"
   style="overflow:visible"
   id="use38"
   x="0"
   y="0"
   width="100%"
   height="100%" />
			</clipPath>
			<g
   clip-path="url(#SVGID_5_)"
   id="g69">
				<path
   class="st113"
   d="m 276.1,269.5 24.1,31.1 c 0,0 -21.1,-8 -24.6,-1.5 -3.5,6.5 0.5,7 0.5,7 0,0 4.5,-10 9,-6 4.5,4 9.5,4 9.5,4 l 20.1,1 -31.6,-37.7 z"
   id="path41"
   inkscape:connector-curvature="0"
   style="fill:#a37b2b" />
				<path
   class="st113"
   d="m 258.6,269 c 0,0 7.5,30.6 9.5,35.2 2,4.6 0,5 0,5 0,0 -5.5,-3.5 -10.6,-1 -5,2.5 -2.5,9.5 -2.5,9.5 0,0 -8,-8 -5,-11.1 3,-3 12.1,-2.5 12.1,-2.5 L 252,269 Z"
   id="path43"
   inkscape:connector-curvature="0"
   style="fill:#a37b2b" />
				<path
   class="st114"
   d="m 356.5,163 c 0,0 17.4,38.5 -1.7,63.6 -19.1,25.1 -54.9,52.6 -102.5,44.2 -47.6,-8.4 -52.9,-23.8 -52.9,-23.8 0,0 -33.5,0.7 -42.5,1 -9,0.3 -10,0 -10,0 0,0 43.9,-35.2 96.8,-40.5 52.9,-5.3 112.8,-44.5 112.8,-44.5 z"
   id="path45"
   inkscape:connector-curvature="0"
   style="fill:#4578ac" />
				<path
   class="st115"
   d="m 160.6,226.1 c 0,0 -10,14.1 -30.5,19.1 -20.5,5 -64.6,34.5 -64.6,34.5 l 17.1,-3.7 1,2.3 c 0,0 80.4,-34.5 82.4,-34.5 2,0 48.6,-19.8 48.6,-19.8 z"
   id="path47"
   inkscape:connector-curvature="0"
   style="fill:#3c6799" />
				<path
   class="st116"
   d="m 158.9,214.5 c 0,0 -28.1,15.3 -27.8,19.7 0.3,4.4 31.1,-5.7 57.6,-6 26.5,-0.3 66,-4.7 88.1,-9.4 22.1,-4.7 53.9,-10.4 57.3,-16.1 3.4,-5.7 1.3,-12.7 -6.4,-12.1 -7.7,0.6 -101.8,-25.8 -101.8,-25.8 0,0 -49.9,26.8 -58.9,35.2"
   id="path49"
   inkscape:connector-curvature="0"
   style="fill:#1c1929" />
				<path
   class="st117"
   d="m 353.3,123 c 0,0 -6.9,-22.4 -30,-21.7 -23.1,0.7 -31,12.7 -34.7,14.3 -3.7,1.7 -12.7,3.7 -20.8,14.1 -8.1,10.4 -33.2,22.4 -40.2,30.5 -7,8 1.3,7.7 1.3,7.7 l 8.4,2.3 -11.4,9.4 H 244 c 0,0 -11.7,3.3 -6.4,6.7 5.4,3.3 21.8,6.7 25.5,7 3.7,0.3 -1,4.7 8,6 9,1.3 26.5,4 26.5,4 0,0 -6.4,7.4 3,6.4 9.4,-1 22.9,1 33.3,-7 10.4,-8 30,-21.5 23.6,-44.5 -2.6,-10.1 -4.2,-35.2 -4.2,-35.2 z"
   id="path51"
   inkscape:connector-curvature="0"
   style="fill:#2a7ec5" />
				<g
   id="g57">
					<path
   class="st118"
   d="m 351.8,123 c 0,0 12.4,2.9 18.6,13.4 0,0 -20.7,10.7 -24.3,12.1 -3.6,1.4 -1.1,1.5 -1.1,1.5 l -5.9,-8.3 z"
   id="path53"
   inkscape:connector-curvature="0"
   style="fill:#2998d6" />
					<path
   class="st119"
   d="m 370,136.1 c 0,0 -23.3,3 -30.4,5"
   id="path55"
   inkscape:connector-curvature="0"
   style="fill:none;stroke:#0e4c68;stroke-width:3;stroke-miterlimit:10" />
				</g>
				<path
   class="st120"
   d="m 330.7,129.8 c 0,3.5 -1.9,6.3 -4.3,6.3 -2.4,0 -7.1,-1.6 -7.1,-5.1 0,-3.5 4.8,-7.5 7.1,-7.5 2.4,0 4.3,2.8 4.3,6.3 z"
   id="path59"
   inkscape:connector-curvature="0"
   style="fill:#ffffff;stroke:#39c9ea;stroke-width:3;stroke-miterlimit:10" />
				<circle
   class="st121"
   cx="326.39999"
   cy="130"
   r="5"
   id="circle61"
   style="fill:#171c1e" />
				<path
   class="st122"
   d="m 20.9,476.9 c -1.7,-13.1 0,-147.5 112.8,-157.3 112.8,-9.8 163.1,-16.4 168.3,-16.4 5.2,0 71.1,-6.6 95.4,55.7 24.3,62.3 43.4,114.7 43.4,114.7 z"
   id="path63"
   inkscape:connector-curvature="0"
   style="fill:#8c8680" />
				<path
   class="st123"
   d="m 316,134.3 c 0,0 -23.4,-10 -24.8,3.3 -1.4,13.3 11.4,17.4 11.4,17.4 0,0 -4,10.7 2.7,10.7 6.7,0 22.1,-4 24.1,-2 2,2 22.8,5.4 22.8,5.4 l 5,-3.4 -3,-14.7 c 0,0 -14.7,3.3 -17.4,-1.3 -2.7,-4.7 -4.7,-11.4 -4.7,-11.4 z"
   id="path65"
   inkscape:connector-curvature="0"
   style="fill:#1d6da3" />
				<path
   class="st124"
   d="M 232.7,342.6 300.6,313 438.6,257.3 459.9,435 84.1,453.5 169,305.6 l 29.7,17.2 z"
   id="path67"
   inkscape:connector-curvature="0"
   style="fill:#725d57" />
			</g>
		</g>
	</g>
</g>
</svg>